<svg width="108" height="77" viewBox="0 0 108 77" fill="none" xmlns="http://www.w3.org/2000/svg">
<g clip-path="url(#clip0)">
<path d="M185.364 239.821C166.318 217.554 143.821 198.266 117.614 181.645C73.5116 153.683 32.5621 105.8 10.76 56.6885C9.67934 54.2662 7.22055 51.8842 5.26098 51.3732C3.29978 50.8599 2.58184 52.4097 3.65729 54.8336C27.0624 107.542 71.05 158.958 118.459 189.023C167.222 219.943 202.169 260.797 225.283 313.917C226.335 316.336 228.789 318.732 230.764 319.276C232.737 319.818 233.483 318.297 232.433 315.88C220.01 287.336 204.412 262.091 185.364 239.821Z" fill="white"/>
<path d="M29.9431 32.3509C53.3517 85.0637 97.3394 136.48 144.745 166.54C193.515 197.461 228.458 238.318 251.569 291.435C252.62 293.854 255.073 296.251 257.048 296.791C259.023 297.336 259.769 295.814 258.719 293.398C246.297 264.856 230.703 239.611 211.655 217.341C192.607 195.075 170.112 175.785 143.9 159.163C99.7993 131.206 58.853 83.3191 37.0458 34.2058C35.9651 31.7836 33.5046 29.3995 31.545 28.8884C29.5856 28.3772 28.8676 29.927 29.9431 32.3509Z" fill="white"/>
<path d="M56.2286 9.86797C79.641 62.5776 123.627 113.991 171.031 144.057C219.794 174.97 254.739 215.818 277.854 268.952C278.906 271.37 281.361 273.766 283.334 274.308C285.309 274.853 286.054 273.331 285.004 270.915C272.583 242.369 256.985 217.12 237.937 194.854C218.891 172.586 196.394 153.298 170.187 136.682C126.085 108.716 85.1385 60.8362 63.3313 11.7229C62.2506 9.30062 59.7901 6.91654 57.8307 6.40532C55.8711 5.89426 55.1532 7.44411 56.2286 9.86797Z" fill="white"/>
</g>
<defs>
<clipPath id="clip0">
<rect width="108" height="77" fill="white"/>
</clipPath>
</defs>
</svg>
